<?xml version="1.0" encoding="iso-8859-1"?>
<!-- Generator: Adobe Illustrator 19.0.0, SVG Export Plug-In . SVG Version: 6.00 Build 0)  -->
<svg version="1.1" id="Layer_1"
	xmlns="http://www.w3.org/2000/svg"
	xmlns:xlink="http://www.w3.org/1999/xlink" x="0px" y="0px" viewBox="0 0 511.999 511.999" style="enable-background:new 0 0 511.999 511.999;" xml:space="preserve" fill="white">
	<g>
		<g>
			<g>
				<path d="M440.692,350.804c-3.384-7.114-10.572-19.166-11.381-20.517l-0.25-0.404c-0.069-0.107-0.139-0.213-0.211-0.321
				c-11.815-18.355-25.901-33.957-41.869-46.376c-3.68-2.861-16.672-12.768-29.406-20.119c-8.859-5.115-17.996-9.635-27.155-13.433
				l-0.107-0.046c-1.007-0.418-2.015-0.819-3-1.211l-0.113-0.045c-0.454-0.181-0.908-0.362-1.383-0.547
				c-0.855-0.331-1.709-0.654-2.554-0.97c-0.66-0.247-1.321-0.491-1.981-0.73l-0.109-0.04c-0.733-0.265-1.465-0.529-2.171-0.775
				c-0.818-0.286-1.637-0.563-2.456-0.837l-0.49-0.165c-0.48-0.162-0.959-0.324-1.417-0.472c-1.285-0.418-2.57-0.819-3.879-1.218
				l-0.596-0.184c-1.462-0.438-2.924-0.855-4.37-1.253c-0.322-0.089-0.647-0.175-0.97-0.261l-0.474-0.127
				c-1.032-0.274-2.062-0.545-3.081-0.8c-0.478-0.12-0.955-0.236-1.434-0.351l-0.266-0.064c-0.946-0.226-1.892-0.447-2.84-0.661
				c-0.6-0.136-1.201-0.269-1.79-0.395c-0.927-0.2-1.854-0.388-2.77-0.573l-0.342-0.068c-0.494-0.1-0.987-0.199-1.487-0.294
				c-0.962-0.184-1.924-0.352-2.874-0.517c-0.917-0.16-1.834-0.315-2.767-0.463c-1.033-0.164-2.068-0.326-3.065-0.468l-0.018-0.003
				c-0.179-0.028-0.359-0.057-0.537-0.08l-0.001,0.006c-3.937-0.538-8.072-0.982-11.697-1.256l-0.168-0.012
				c-8.608-0.554-17.17-0.526-25.754,0.09c0.298-8.07,1.174-15.799,2.619-23.115c2.951-0.125,5.892-0.188,8.806-0.188l1.056,0.01
				l1.214-0.01c13.462,0,26.93,1.287,40.032,3.824c8.393,1.626,16.824,3.803,25.059,6.473l23.602,7.65l-3.892-24.504
				c-5.738-36.12-20.378-68.163-43.512-95.234c-12.459-14.58-25.147-24.82-33.598-30.843l-8.827-6.291l-8.827,6.291
				c-8.451,6.023-21.139,16.263-33.597,30.842c-10.237,11.979-18.874,24.98-25.661,38.625
				c-13.691,27.444-20.633,58.654-20.633,92.762c0,16.584,1.711,32.804,5.088,48.222c2.334,10.619,5.478,20.908,9.344,30.581
				l0.072,0.176c1.252,3.021,2.577,6.007,3.941,8.873c4.083,8.588,8.828,16.878,14.174,24.782
				c-7.136,3.784-14.32,6.906-21.485,9.339c-4.112-6.506-7.879-13.246-11.252-20.134l-0.072-0.147
				c-4.234-8.421-7.909-17.119-10.924-25.855c-2.794-8.098-5.127-16.505-6.933-24.987l-5.16-24.229l-19.272,15.566
				c-28.564,23.071-49.088,51.847-61.005,85.529c-6.398,18.089-8.92,34.192-9.911,44.516l-1.034,10.788l9.858,4.5
				c9.433,4.306,24.639,10.174,43.512,13.677c11.577,2.148,23.293,3.237,34.824,3.237c4.493,0,12.527-0.443,13.429-0.494
				l0.269-0.018c0.376-0.027,3.602-0.305,5.048-0.453l1.398-0.149c1.346-0.147,2.693-0.31,4.047-0.488l1.23-0.162
				c3.464-0.481,6.958-1.063,10.379-1.731l1.37-0.277c1.263-0.257,2.527-0.525,3.777-0.805c0.549-0.122,1.098-0.245,1.651-0.374
				c1.264-0.294,2.527-0.604,3.797-0.926l0.426-0.105c0.312-0.077,0.624-0.154,0.937-0.236c1.612-0.421,3.223-0.864,4.827-1.326
				c0.447-0.13,0.896-0.265,1.343-0.399l0.594-0.179c0.993-0.296,1.985-0.596,2.974-0.908c0.796-0.251,1.592-0.51,2.402-0.777
				c0.818-0.27,1.635-0.547,2.469-0.831l0.307-0.105c0.754-0.259,1.508-0.517,2.282-0.794c0.519-0.187,1.036-0.379,1.554-0.571
				l0.534-0.199c11.861-4.383,23.659-9.944,35.065-16.53c25.819-14.906,47.117-33.329,63.295-54.746
				c5.284-6.986,10.216-14.624,14.66-22.703l0.069-0.128c1.246-2.317,2.449-4.676,3.606-7.069
				c6.74,4.242,12.955,8.865,18.585,13.826c-7.848,15.425-17.493,29.771-28.707,42.687c-5.545,6.387-11.578,12.536-17.93,18.276
				l-18.383,16.61l23.13,8.875c22.855,8.768,46.227,13.215,69.474,13.215c11.535-0.001,23.25-1.091,34.821-3.241h-0.001
				c18.872-3.503,34.094-9.377,43.539-13.688l9.853-4.498l-1.027-10.781C456.75,398.621,452.581,375.799,440.692,350.804z
				 M400.238,412.43h-0.001c-9.744,1.809-19.592,2.726-29.277,2.727c-11.803,0-23.682-1.381-35.515-4.119
				c0.741-0.829,1.474-1.663,2.201-2.497c13.645-15.718,25.258-33.27,34.514-52.175c1.207-2.401,2.403-4.89,3.559-7.4l4.344-9.426
				l-7.195-7.481c-10.725-11.152-23.547-21.069-38.107-29.476c-3.418-1.974-6.947-3.87-10.49-5.635l-15.1-7.527l-5.925,15.799
				c-2.524,6.73-5.488,13.28-8.812,19.469c-3.728,6.772-7.844,13.146-12.237,18.955c-13.717,18.159-31.965,33.886-54.24,46.746
				c-9.919,5.729-20.145,10.553-30.399,14.341l-0.59,0.219c-0.411,0.153-0.822,0.305-1.214,0.446c-0.63,0.224-1.26,0.44-1.891,0.657
				l-0.298,0.102c-0.712,0.243-1.427,0.486-2.125,0.717c-0.679,0.222-1.359,0.443-2.042,0.659c-0.846,0.267-1.692,0.523-2.52,0.771
				l-0.69,0.208c-0.319,0.096-0.64,0.193-0.966,0.287c-1.365,0.392-2.729,0.768-4.094,1.124l-1.16,0.29
				c-1.072,0.272-2.143,0.534-3.212,0.784c-0.455,0.107-0.911,0.208-1.378,0.312c-1.068,0.238-2.135,0.465-3.187,0.679l-1.158,0.234
				c-2.881,0.564-5.817,1.052-8.703,1.453l-1.042,0.137c-1.131,0.148-2.262,0.286-3.384,0.409l-1.18,0.127
				c-1.123,0.115-3.556,0.324-4.12,0.372c-2.364,0.131-8.54,0.437-11.545,0.437c-9.674,0-19.523-0.918-29.272-2.726
				c-10.136-1.882-18.995-4.569-26.125-7.203c1.285-7.494,3.386-16.51,6.825-26.227c7.367-20.825,18.687-39.446,33.765-55.595
				c0.383,1.168,0.774,2.332,1.174,3.491c3.446,9.99,7.641,19.923,12.468,29.53c5.651,11.531,12.267,22.696,19.671,33.19
				l6.003,8.509l10.104-2.519c14.993-3.739,30.025-9.924,44.679-18.386c3.438-1.985,6.874-4.109,10.211-6.314l14.075-9.294
				l-10.697-13.041c-8.227-10.03-15.203-21.012-20.733-32.644c-1.129-2.374-2.231-4.853-3.274-7.368
				c-3.234-8.106-5.874-16.762-7.842-25.717c-2.906-13.274-4.38-27.306-4.38-41.704c0-29.353,5.865-55.994,17.442-79.2
				c5.686-11.43,12.938-22.339,21.558-32.426c6.692-7.831,13.45-14.16,19.3-19.023c5.849,4.863,12.608,11.193,19.301,19.025
				c14.276,16.705,24.708,35.704,31.16,56.7c-1.169-0.245-2.34-0.481-3.509-0.708c-15.003-2.906-30.417-4.379-45.816-4.379
				l-1.135,0.009l-1.136-0.009c-7.38,0-14.903,0.35-22.361,1.04l-10.341,0.958l-2.871,9.981
				c-4.236,14.721-6.384,30.882-6.384,48.033c0,3.799,0.117,7.725,0.347,11.669l0.984,16.879l16.681-2.76
				c8.631-1.428,17.379-2.151,26.002-2.151c3.377,0,6.821,0.111,10.236,0.328c3.082,0.235,6.774,0.638,10.149,1.107
				c0.87,0.124,1.74,0.262,2.593,0.397c0.769,0.123,1.538,0.251,2.32,0.388c0.811,0.142,1.621,0.283,2.424,0.435
				c0.384,0.074,0.767,0.151,1.151,0.228l0.376,0.076c0.783,0.156,1.564,0.315,2.356,0.486c0.499,0.106,0.996,0.218,1.491,0.33
				c0.808,0.182,1.618,0.372,2.413,0.563l0.263,0.064c0.385,0.093,0.77,0.185,1.169,0.285c0.877,0.22,1.753,0.45,2.597,0.675
				l1.23,0.328c1.24,0.342,2.479,0.695,3.749,1.077l0.488,0.15c1.099,0.334,2.198,0.678,3.318,1.041
				c0.352,0.115,0.701,0.233,1.051,0.352l0.56,0.189c0.691,0.232,1.383,0.465,2.101,0.716c0.626,0.218,1.249,0.444,1.921,0.686
				c0.566,0.206,1.132,0.413,1.707,0.629c0.738,0.276,1.476,0.556,2.195,0.833l1.289,0.51c0.822,0.325,1.645,0.654,2.53,1.02
				l0.157,0.065c7.942,3.294,15.882,7.223,23.599,11.679c8.782,5.071,19.16,12.514,25.941,17.788
				c13.279,10.328,25.065,23.425,35.024,38.92c0.02,0.03,0.039,0.061,0.059,0.09c2.131,3.575,7.556,12.876,9.834,17.665
				c7.357,15.466,11.189,29.895,13.167,41.341C419.249,407.855,410.379,410.548,400.238,412.43z"/>
				<path d="M499.007,352.906c-12.661-36.695-40.514-88.04-101.504-127.749c-3.976-72.5-34.466-122.173-59.858-151.42
				c-29.629-34.129-59.756-49.606-63.107-51.266l-18.526-9.149l-18.521,9.149c-1.33,0.657-32.936,16.509-63.109,51.266
				c-25.393,29.246-55.885,78.919-59.86,151.42c-60.989,39.71-88.842,91.054-101.504,127.75
				c-14.746,42.743-13.081,76.557-12.843,80.286l1.341,20.617l17.172,11.459c3.09,2.063,31.471,20.408,75.963,29.03
				c15.006,2.905,30.42,4.378,45.816,4.378c39.609,0,78.443-9.553,115.546-28.406c37.103,18.853,75.937,28.406,115.546,28.406
				c15.4,0,30.815-1.473,45.817-4.38c44.421-8.607,72.855-26.958,75.958-29.026l17.177-11.463l1.337-20.605
				C511.945,431.724,514.037,396.471,499.007,352.906z M481.496,431.231l-0.364,5.618l-4.675,3.12
				c-0.251,0.167-25.618,16.863-64.866,24.469c-13.1,2.537-26.569,3.823-40.032,3.823c-37.068,0-73.497-9.599-108.274-28.53
				l-7.272-3.957l-7.272,3.958c-34.777,18.932-71.205,28.53-108.274,28.53c-13.46,0-26.928-1.287-40.031-3.823
				c-39.272-7.61-64.603-24.295-64.86-24.467l-4.682-3.124l-0.364-5.614c-0.019-0.302-1.777-30.666,11.242-68.405
				c11.506-33.346,37.425-80.557,95.553-116.096l7.053-4.312l0.218-8.262c1.792-67.954,29.676-113.899,52.754-140.479
				c26.176-30.152,53.349-43.806,53.616-43.939l5.047-2.492l5.041,2.489c0.273,0.135,27.451,13.796,53.622,43.943
				c23.075,26.579,50.959,72.525,52.752,140.478l0.218,8.262l7.053,4.312c58.131,35.54,84.049,82.75,95.555,116.097
				C483.279,400.581,481.516,430.927,481.496,431.231z" fill="white"/>
			</g>
		</g>
	</g>
	<g>
	</g>
	<g>
	</g>
	<g>
	</g>
	<g>
	</g>
	<g>
	</g>
	<g>
	</g>
	<g>
	</g>
	<g>
	</g>
	<g>
	</g>
	<g>
	</g>
	<g>
	</g>
	<g>
	</g>
	<g>
	</g>
	<g>
	</g>
	<g>
	</g>
</svg>
