<?xml version="1.0" standalone="no"?>
<!DOCTYPE svg PUBLIC "-//W3C//DTD SVG 20010904//EN"
 "http://www.w3.org/TR/2001/REC-SVG-20010904/DTD/svg10.dtd">
<svg version="1.0" xmlns="http://www.w3.org/2000/svg"
 width="700.000000pt" height="700.000000pt" viewBox="0 0 700.000000 700.000000"
 preserveAspectRatio="xMidYMid meet">
<metadata>
Created by potrace 1.14, written by Peter Selinger 2001-2017
</metadata>
<g transform="translate(0.000000,700.000000) scale(0.100000,-0.100000)"
fill="#000000" stroke="none">
<path d="M3335 6737 c-88 -45 -171 -89 -185 -98 -14 -9 -59 -38 -100 -64 -85
-55 -284 -205 -347 -263 -311 -283 -517 -538 -705 -871 -54 -94 -168 -334
-189 -396 -7 -22 -16 -44 -20 -50 -9 -14 -84 -245 -108 -335 -50 -189 -96
-461 -107 -628 -7 -110 -8 -114 -61 -147 -26 -16 -95 -65 -152 -108 -619 -462
-1055 -1099 -1250 -1822 -29 -108 -66 -282 -76 -360 -3 -22 -7 -49 -10 -60
-20 -97 -26 -452 -11 -645 4 -52 8 -95 9 -96 1 0 67 -45 147 -98 226 -152 471
-268 755 -359 170 -55 409 -109 543 -123 32 -3 59 -7 62 -9 3 -2 51 -7 105
-11 185 -14 589 -7 690 12 10 2 37 6 60 9 256 36 512 103 770 202 104 40 127
50 252 109 l93 43 94 -44 c387 -182 834 -304 1218 -332 174 -13 566 -6 653 11
11 2 45 7 75 11 30 4 64 9 75 11 11 2 47 9 80 15 314 55 712 199 964 347 57
33 302 193 319 207 7 6 17 234 16 385 0 188 -6 273 -29 415 -132 824 -540
1537 -1189 2076 -16 13 -34 29 -40 34 -16 15 -181 135 -247 180 -43 29 -56 45
-57 64 -6 185 -56 497 -118 727 -78 290 -223 630 -370 866 -41 67 -138 212
-144 218 -3 3 -25 32 -49 65 -25 33 -47 62 -50 65 -3 3 -26 30 -51 60 -40 50
-71 84 -172 190 -131 139 -344 315 -523 432 -95 63 -443 251 -457 247 -2 0
-75 -37 -163 -82z m270 -438 c80 -46 272 -172 285 -188 3 -3 46 -40 95 -81
497 -414 865 -1048 979 -1685 3 -16 8 -41 11 -55 9 -47 14 -81 21 -148 3 -37
8 -70 10 -73 2 -3 6 -62 10 -130 7 -148 12 -242 13 -250 1 -3 40 -30 89 -59
387 -236 720 -548 965 -905 41 -60 85 -128 97 -150 12 -22 31 -56 42 -75 222
-378 363 -910 360 -1360 l0 -104 -34 -28 c-47 -38 -263 -149 -397 -203 -189
-75 -461 -151 -617 -170 -27 -4 -56 -8 -64 -10 -15 -4 -100 -13 -195 -20 -73
-6 -308 -6 -395 0 -97 7 -248 25 -320 40 -14 2 -50 10 -80 16 -256 51 -529
150 -807 290 l-173 88 -172 -88 c-213 -108 -496 -218 -658 -257 -25 -6 -203
-44 -230 -49 -58 -12 -241 -35 -320 -40 -193 -14 -515 1 -665 31 -11 3 -36 7
-55 10 -240 36 -627 174 -854 304 -133 76 -128 69 -128 195 -1 103 9 263 18
309 2 12 7 46 10 76 3 30 7 57 9 60 2 3 6 25 10 50 4 25 8 47 10 51 2 3 7 21
10 40 12 72 93 344 120 404 8 17 26 59 41 95 161 391 466 803 809 1091 145
121 320 245 501 355 13 8 18 25 20 70 3 101 15 311 19 336 2 13 6 45 10 72 94
748 473 1438 1047 1906 158 130 405 289 448 290 9 0 56 -23 105 -51z"/>
<path d="M3486 6001 c-4 -5 -42 -35 -86 -65 -414 -291 -749 -720 -930 -1193
-40 -107 -96 -293 -116 -388 -22 -108 -40 -219 -49 -315 -4 -36 -8 -83 -10
-105 -6 -56 -6 -401 0 -455 2 -25 7 -74 10 -110 3 -36 8 -76 10 -90 61 -403
177 -733 359 -1024 31 -48 56 -90 56 -93 0 -4 -85 -44 -185 -88 -42 -18 -106
-38 -110 -33 -19 20 -150 267 -195 366 -81 179 -169 439 -194 572 -12 66 -27
133 -46 220 -28 123 -28 124 -29 133 -1 4 -27 -14 -59 -40 -32 -26 -78 -64
-102 -83 -438 -348 -691 -665 -877 -1100 -70 -162 -147 -419 -168 -555 -3 -22
-10 -67 -15 -100 -7 -51 -20 -174 -24 -238 -1 -14 28 -31 121 -72 244 -108
471 -175 718 -211 205 -29 610 -26 761 7 22 4 58 11 80 13 178 23 509 138 761
265 193 97 453 264 577 371 301 258 481 474 640 764 l58 106 78 -54 c74 -52
87 -62 148 -114 l27 -22 -34 -63 c-65 -120 -187 -308 -261 -401 -131 -166
-344 -380 -565 -569 l-30 -25 25 -11 c170 -72 529 -197 624 -217 12 -3 41 -9
66 -15 182 -40 310 -53 530 -53 195 -1 266 3 390 19 223 28 533 123 783 240
48 22 56 30 52 48 -2 12 -7 58 -10 102 -3 44 -10 109 -16 145 -6 36 -13 79
-16 95 -9 62 -65 273 -95 360 -55 163 -110 281 -228 490 -120 215 -359 498
-563 668 -331 276 -776 514 -1154 616 -262 71 -442 95 -706 95 l-159 -1 7 91
c3 50 12 120 18 156 l12 65 155 0 c140 0 238 -6 370 -21 159 -18 480 -100 739
-189 92 -31 101 -31 95 -2 -2 12 -9 51 -14 87 -5 36 -11 74 -14 85 -3 17 -13
83 -21 135 -2 8 -6 31 -9 50 -107 563 -345 1020 -731 1405 -92 91 -159 149
-280 239 -141 106 -162 119 -169 107z m192 -680 c88 -91 188 -215 260 -325 67
-103 182 -336 221 -448 29 -84 30 -93 6 -88 -29 6 -53 10 -89 16 -22 3 -43 7
-46 9 -3 1 -41 6 -85 10 -44 4 -82 8 -85 10 -23 14 -487 23 -596 11 -27 -2
-87 -8 -134 -12 -47 -3 -88 -9 -91 -13 -19 -19 -83 -288 -105 -442 -18 -121
-24 -455 -12 -624 4 -49 7 -96 7 -103 1 -7 4 -11 9 -9 4 3 32 8 62 12 30 3 62
8 70 10 8 2 35 7 60 10 24 4 47 8 50 10 28 17 451 27 560 13 410 -55 788 -206
1146 -459 360 -255 577 -506 765 -889 67 -138 148 -384 174 -529 5 -31 3 -32
-100 -66 -281 -92 -595 -119 -942 -81 -50 5 -167 28 -180 35 -7 4 16 39 63 95
163 197 299 409 429 672 52 106 95 198 95 206 0 13 -176 194 -254 260 -70 60
-189 146 -286 206 -97 60 -418 228 -423 221 -2 -2 -25 -62 -51 -134 -103 -278
-233 -508 -391 -695 -41 -48 -232 -239 -275 -274 -238 -193 -549 -373 -814
-471 -93 -34 -281 -87 -351 -99 -16 -3 -54 -10 -83 -16 -165 -31 -483 -31
-662 0 -30 5 -71 12 -90 15 -46 8 -210 51 -280 74 -62 21 -60 12 -35 136 15
75 80 281 113 355 49 114 100 212 150 295 57 92 177 254 233 314 37 40 36 40
74 -69 15 -41 33 -89 41 -107 8 -17 14 -34 14 -38 0 -15 159 -329 213 -420 78
-131 218 -336 233 -342 17 -6 221 50 351 96 120 43 248 101 368 169 97 54 355
222 355 231 -1 3 -12 20 -26 36 -250 294 -394 532 -484 801 -42 126 -84 300
-95 394 -4 30 -9 58 -10 61 -8 13 -19 213 -19 349 0 134 9 307 18 355 2 11 7
45 12 75 4 30 8 57 9 60 1 3 5 23 9 45 49 255 172 554 321 779 101 153 278
354 389 444 l40 31 50 -46 c28 -25 84 -80 124 -122z"/>
</g>
</svg>
